<?xml version="1.0" encoding="UTF-8"?>
<svg width="640px" height="640px" viewBox="0 0 6400 6400" xmlns="http://www.w3.org/2000/svg"><path fill="#005830" transform="scale(10)" d="m553.7 79.199-29.398 12.602-10.9-0.70117-10.9-0.69922-7.0996 6.5c-5.9 5.6-8.6 7.1996-17 10.6-9.6 3.8-10.3 4-21.9 4-6.6 0-15.1-0.40078-18.9-0.80078l-6.9004-0.89844 0.5 8.6992 0.60156 8.6992 6.0996 6.2012c3.4 3.4 6.0996 6.5004 6.0996 6.9004s-2.7992 0.69922-6.1992 0.69922c-4.5 0-7.8004 0.70039-11.4 2.4004-4.7 2.2-5.2012 2.6992-7.2012 8.6992-2.5 7.2-2.7984 6.5996 5.6016 11.6l4.1992 2.5 5.8008-4.7988c3.1-2.7 8.3-7.3008 11.5-10.301l5.7988-5.5 7.2012 2.3008c4 1.3 10.099 3.6988 13.699 5.2988 6.4 2.8 6.5008 3.0016 9.3008 9.6016 1.5 3.8 2.6992 7.1996 2.6992 7.5996 0 0.5-2.2004 3.4-4.9004 6.5l-5 5.6992 3.5 4.4004 3.4004 4.3008-2.5 2.6992c-1.9 2-2.5 3.6008-2.5 7.3008 0 2.6 0.29961 4.6992 0.59961 4.6992s3.9004-1.5004 7.9004-3.4004c8.5-3.9 7.5996-2.2996 15.6-26.1l5.3008-16 6.0996-5.3008 6-5.1992h19.5v4.8008c0 4.3-0.4 5.1992-4 8.6992-2.2 2.1-4 4.4-4 5 0 1.4 5.3008 4.7996 14.301 9.0996l7.7988 3.7012 4.0996-3.9004c9-8.8 11.901-18.101 7.8008-25.701-1.3-2.4-2-5.5984-2-8.8984v-5.3008l5.4004-3.3008c8.7-5.4 9.0996-6.0996 9.0996-16.6 0-7.7-0.40039-9.6988-2.4004-13.299-1.3-2.2-3.5992-5.0012-5.1992-6.2012l-2.7012-2 1.9004-6.2988c1-3.5 1.9004-6.8004 1.9004-7.4004 0-0.7-3.3996-1.6012-8.0996-2.2012zm-181.68 54.447c-5.2236 0.28125-11.652 3.7656-19.215 10.453-3.2 2.8-5.8008 5.4008-5.8008 5.8008 0 1.1 10.8 8.6004 15 10.4 4.9 2.1 9.4 1.9992 14-0.30078 4.7-2.4 11-8.7004 11-10.9-0.1-2.9-3.7004-9.5-6.9004-12.5-2.25-2.1375-4.9498-3.1219-8.084-2.9531zm-73.854 20.896c-0.58125-0.0375-1.2375 0.0312-2.0625 0.15625-2 0.3-4 0.90039-4.5 1.4004-0.5 0.4-0.49961 4.6012-0.0996 9.2012l0.69922 8.5 7.1016 3c4 1.7 7.3 3.0996 7.5 3.0996 0.2 0.1 1.5992-0.60039 3.1992-1.4004 1.7-0.9 3-1.8 3-2 0-2.6-5.6996-13.4-9.0996-17.4-2.925-3.375-3.9945-4.4441-5.7383-4.5566zm-225.96 54.457c-2.7 0-5.0984 0.29961-5.3984 0.59961-0.4 0.3 0.69883 4.5008 2.2988 9.3008 2.9 8.4 3.1012 8.7988 6.7012 9.7988 5.3 1.5 6.1992 1.5004 6.1992-0.0996 0-2.2-2.9-14.799-4-17.299-0.8-1.9-1.7008-2.3008-5.8008-2.3008zm331.9 7.4004c-0.4 0.3-1.1004 4.1-1.4004 8.5-0.4 6.6-1.0988 9.1-3.7988 14-1.9 3.4-3.6004 6.0996-3.9004 6.0996-0.4 0-1.7004-2.9-2.9004-6.5-1.3-3.6-2.7-6.7-3-7-0.4-0.2-1.9004 2.9996-3.4004 7.0996-3.5 9.9-11.1 21.7-13.5 21-8-2.6-12.7-2.5992-24.6-0.19922-6.7 1.3-15.599 2.9996-19.799 3.5996l-7.6016 1.1992-4.8984-4c-2.6-2.2-9-6.0996-14-8.5996-5.1-2.5-9.3008-5.0004-9.3008-5.4004s-1.4-2.0984-3-3.8984l-3-3.2012-4.8008 1.5c-5.2 1.6-5.1988 1.5004-10.799-6.0996l-2-2.9004-5.5 3c-4.9 2.8-5.9004 3.0008-11.4 2.3008-3.3-0.4-6.2996-0.50078-6.5996-0.30078-0.4 0.2-1.2008 3.1996-1.8008 6.5996-3.2 16.5-2.5996 15.201-10.1 20.201-4.4 2.9-9.7004 7.9004-14.9 13.9l-8 9.3984-10.799 2.2012c-16.9 3.5-17.201 3.6988-27.801 11.299-5.5 4-17.2 12.102-26 18.102-14.2 9.5-17.2 12-26 22-12.1 13.5-18.201 17.898-29.301 21.398-9.8 3-18.299 2.9008-31.699-0.69922-4.4-1.2-9.7008-2.5996-11.801-3.0996-3.2-0.8-4.4984-2.1012-8.3984-8.2012-2.5-4-4.7004-7.3996-4.9004-7.5996-0.5-0.6-22.4 3.3-22.4 4 0 0.4 1.7008 2.1996 3.8008 4.0996 3.5 3.2 6.1992 4.7004 16.699 9.4004 5.1 2.3 16.599 13.9 22.699 22.9 9.7 14.3 10.7 21.799 6.4004 47.199-1.7 9.7-2.9996 22.6-3.5996 35.5-0.6 11.2-1.7 27.301-2.5 35.801-1.7 17.1-1.2992 16.3-9.6992 20.6-2.7 1.3-4.8008 2.8012-4.8008 3.2012 0 0.5 4.2008 2.2996 9.3008 4.0996l9.2988 3.2988 2.2012 6.2012c4.1 11.4 7.4996 15.4 19.1 22.4 5.7 3.4 10.7 6.1992 11.1 6.1992s4.9004-3.5996 9.9004-8.0996c8.6-7.6 9.5-8.8012 15-19.701l5.9004-11.699 8.0996-4.5c6.5-3.6 9.6-6.2 15-12.5 3.8-4.4 8.0004-9.0008 9.4004-10.301l2.5-2.3984 6.7988 4.5 6.9004 4.5 6.9004-1.1016 6.9004-1.1992 3.6992-10.5 3.5996-10.5 5.7012-2.3008c3.1-1.2 9.1984-2.8996 13.398-3.5996 4.3-0.8 10.902-2.8 14.602-4.5 3.8-1.7 7.2984-3.0996 7.8984-3.0996s2.8 1.3992 5 3.1992l4 3.1016 7.7012-2.6016c4.2-1.4 11.099-2.8988 15.299-3.2988l7.6016-0.70117 0.59961 4.2012c0.3 2.2 0.89922 5.9 1.1992 8 0.5 3.6 1.4008 4.6004 9.8008 10.9s9.9004 7.0992 16.4 8.1992l7.0996 1.1992 6-4.8984c3.4-2.8 7.9988-5.4012 10.799-6.2012 8.2-2.4 9-3.0992 16-13.699l6.8008-10.4h6.3008c4.4 0 7.5-0.59961 10.5-2.0996 3.7-2 4.6992-2.0996 10.199-1.0996 4.5 0.9 8.1996 0.79844 15.1-0.10156 9-1.3 9.3008-1.3996 16.301-7.0996l7.0996-5.7988v-18.602l11.4-8.0996 11.5-8.0996 6.9004 1.0996c6.2 1 8.5984 0.9 19.398-1 6.7-1.2 18.3-3.7988 25.5-5.7988l13.301-3.6016 6.0996 1.8008c3.4 1.1 8.8 3.7008 12 5.8008l5.9004 4 5.0996-2.2012c5.8-2.3 17.001-2.8 24.801-1 4.2 0.9 4.7988 0.80039 10.299-2.5996l5.8008-3.5996 8.0996 7 8.2012 7.0996h8.3984c6.4 0 9.3008 0.5 12.301 2 2.2 1.1 4.4004 2 4.9004 2s2.8988-2.6004 5.2988-5.9004c3.9-5.1 4.6016-6.7988 5.6016-13.799 0.6-4.3 1.9996-10.001 3.0996-12.701 1.2-2.6 2.0996-5.0996 2.0996-5.5996s-5.1996-4.7008-11.6-9.3008c-11.3-8.3-11.7-8.7996-21.1-22.6-8.8-13.1-9.8012-14.199-12.201-13.699-1.4 0.3-7.0004 0.99961-12.4 1.5996l-9.7988 1.0996-5.7012-4.9004c-3.1-2.8-7.4992-6.8992-9.6992-9.1992s-5.1992-4.9996-6.6992-6.0996c-2.6-1.9-2.6016-1.9-9.1016 1l-6.5 2.9004-8.6992-5.9004c-4.8-3.2-10.2-6.1-12.1-6.5-4.2-0.8-4.6012-1.3012-7.7012-10.701l-2.5996-7.6992 5-6.5c2.7-3.5 4.9004-6.9004 4.9004-7.4004s-1.1992-3.6996-2.6992-7.0996c-3.2-7.5-7.6016-10.5-17.102-11.5l-6.3984-0.69922-8.1016-11-8.1992-11.102-0.30078 7.5-0.29883 7.4004-6.7012 3-6.6992 3-2 7.3008-2 7.2988-7-0.69922c-3.8-0.4-7.2004-0.79961-7.4004-1.0996-0.2-0.2-0.79922-4.7-1.1992-10-0.6-7.3-0.40078-11.6 0.69922-17.6l1.5-8.1016-3.9004-8.0996c-3.8-8-3.9996-8.2004-12.1-12.9-4.5-2.6-8.5-4.4988-9-4.2988zm-247.6 2.5996c-0.6 0-2.6004 1.5004-4.4004 3.4004-2.2 2.3-5.0992 3.8992-8.1992 4.6992-4.9 1.3-4.9004 1.3004-4.9004 5.4004 0 4 2.1996 8.5 4.0996 8.5 0.5 0 2.6012-0.7 4.7012-1.5 4.2-1.8 16.099-9.5992 16.199-10.699 0-1.4-6.4-9.8008-7.5-9.8008zm-45.512 3.6426c-0.63904-0.11316-2.5137 2.3828-4.3887 5.7578-3.5 6.3-3.9004 6.5996-7.4004 6.5996h-3.6992l-2.8008 8c-2.7 7.7-2.7992 8.1996-1.1992 10.6 1.5 2.3 6.5 5.3008 9 5.3008 0.6 0 2.6-0.70117 4.5-1.7012 2-0.9 6.0992-3.6996 9.1992-6.0996l5.6016-4.5-4-11.5c-2.2-6.4-4.3012-12-4.7012-12.4-0.0312-0.0312-0.0687-0.0491-0.11133-0.0566z" stroke-width=".1"/></svg>
